<svg width="229" height="247" viewBox="0 0 229 247" fill="none" xmlns="http://www.w3.org/2000/svg">
<path d="M65.7668 93.576H45.775C45.2185 93.576 44.6674 93.4661 44.1536 93.2532C43.6394 93.04 43.1723 92.7275 42.7792 92.3339C42.3859 91.9401 42.0743 91.4726 41.8616 90.9585C41.6493 90.4441 41.5402 89.8928 41.541 89.3365V41.2703C41.541 40.7144 41.6506 40.1639 41.8633 39.6503C42.0762 39.1369 42.3881 38.6704 42.7814 38.2773C43.1745 37.8842 43.6413 37.5726 44.1549 37.3603C44.6685 37.1479 45.219 37.0385 45.775 37.0391H78.7804C79.3374 37.0372 79.889 37.1454 80.4043 37.357C80.9192 37.5688 81.3874 37.8801 81.7821 38.2732C82.1766 38.6663 82.4898 39.1334 82.7036 39.6475C82.9173 40.162 83.0277 40.7133 83.028 41.2703V54.2347" stroke="#F5F5F5" stroke-miterlimit="10"/>
<path d="M77.7774 42.8633H47.2102C46.0403 42.8633 45.0918 43.8118 45.0918 44.9816V50.6889C45.0918 51.8588 46.0403 52.8073 47.2102 52.8073H77.7774C78.9472 52.8073 79.8957 51.8588 79.8957 50.6889V44.9816C79.8957 43.8118 78.9472 42.8633 77.7774 42.8633Z" stroke="#F5F5F5" stroke-miterlimit="10"/>
<path d="M62.2777 47.0506C62.8455 47.0506 63.3055 46.5903 63.3055 46.0229C63.3055 45.4551 62.8455 44.9951 62.2777 44.9951C61.71 44.9951 61.25 45.4551 61.25 46.0229C61.25 46.5903 61.71 47.0506 62.2777 47.0506Z" fill="white"/>
<path d="M59.4058 50.6786C59.3818 50.2869 59.4378 49.8944 59.5712 49.5251C59.7046 49.1558 59.912 48.8177 60.181 48.5318C60.4497 48.2459 60.7744 48.0179 61.1347 47.8621C61.4949 47.7063 61.8833 47.626 62.2758 47.626C62.6684 47.626 63.0568 47.7063 63.417 47.8621C63.7773 48.0179 64.102 48.2459 64.371 48.5318C64.6397 48.8177 64.8471 49.1558 64.9805 49.5251C65.1139 49.8944 65.1702 50.2869 65.1459 50.6786H59.4058Z" fill="white"/>
<path d="M62.49 63.9648L62.4898 63.9648C61.4929 63.9648 60.5184 64.2605 59.6896 64.8143L62.49 63.9648ZM62.49 63.9648C63.152 63.9646 63.8077 64.0947 64.4193 64.348L64.4194 64.348C65.0307 64.6011 65.5865 64.9723 66.0547 65.4403C66.0548 65.4403 66.0548 65.4403 66.0548 65.4404C66.0548 65.4404 66.0549 65.4404 66.0549 65.4405C66.5228 65.9087 66.894 66.4644 67.1474 67.076C67.4005 67.6877 67.5306 68.3432 67.5303 69.0052V69.0054M62.49 63.9648L67.5303 69.0054M67.5303 69.0054C67.5303 70.0022 67.2347 70.9768 66.6809 71.8059L67.5303 69.0054ZM62.8421 73.1877L62.9763 73.6693C62.7909 73.721 62.597 73.7311 62.4083 73.6999L62.8421 73.1877ZM62.8421 73.1877C62.7273 73.2197 62.6071 73.226 62.4898 73.2065C62.2979 73.1748 62.1238 73.0762 61.9981 72.928C61.8724 72.7799 61.8032 72.5918 61.8032 72.3975L62.8421 73.1877ZM62.8421 73.1877L62.9755 73.6696C63.1601 73.6185 63.331 73.5279 63.4768 73.4045L63.4774 73.4039C63.623 73.2803 63.7405 73.1265 63.8212 72.9523C63.902 72.7778 63.9432 72.5882 63.9432 72.3975C63.9432 72.2066 63.902 72.0172 63.8212 71.8429C63.7408 71.6694 63.6234 71.5149 63.4771 71.391C63.3444 71.2784 63.191 71.1933 63.0257 71.1403C63.1322 71.0608 63.2203 70.9582 63.2826 70.8391L63.3085 70.7897L63.3228 70.736C63.6466 69.5219 63.8766 68.2848 64.0114 67.0359C64.0221 66.9528 64.0345 66.878 64.0486 66.7936C64.0592 66.7296 64.0707 66.6601 64.0831 66.5774C64.1089 66.4058 64.1328 66.2063 64.1278 66.004C64.1172 65.5801 63.9722 65.0936 63.4452 64.7934L63.4436 64.7925C63.0697 64.5813 62.5937 64.5126 62.1636 64.5785C61.7342 64.6443 61.2611 64.8613 61.0001 65.3224C60.7279 65.7988 60.7588 66.3737 60.8251 66.8179C60.86 67.0523 60.9106 67.2829 60.9568 67.4861C60.9638 67.5171 60.9707 67.5472 60.9774 67.5765C61.0157 67.7446 61.048 67.8859 61.0694 68.0099C61.2055 68.934 61.4038 69.848 61.6622 70.7455L61.6762 70.7942L61.6997 70.8391C61.7757 70.9841 61.8897 71.1048 62.0289 71.1889C62.0382 71.1945 62.0475 71.1999 62.0569 71.2052C61.8891 71.2849 61.7389 71.3997 61.6169 71.5434C61.4146 71.7818 61.3032 72.0844 61.3032 72.3975C61.3032 72.7105 61.4146 73.0132 61.6169 73.2516C61.8192 73.49 62.0995 73.6488 62.4082 73.6998L62.8421 73.1877ZM58.9256 72.5695C58.2207 71.8646 57.7408 70.9667 57.546 69.9889L66.6808 71.806C66.1271 72.6347 65.3398 73.2807 64.4188 73.6622C63.4976 74.0437 62.484 74.1436 61.5063 73.9492C60.5286 73.7547 59.6307 73.2746 58.9256 72.5695L58.5721 72.9231L58.9256 72.5695ZM57.833 67.0764C58.2144 66.1554 58.8604 65.3684 59.6896 64.8143L57.546 69.9888C57.3516 69.0111 57.4515 67.9975 57.833 67.0764Z" fill="white" stroke="#F5F5F5"/>
<path d="M48.5703 57.2471H75.6333" stroke="#F5F5F5" stroke-miterlimit="10"/>
<path d="M48.5703 59.9111H75.6333" stroke="#F5F5F5" stroke-miterlimit="10"/>
<path d="M48.5703 77.0635H75.6333" stroke="#F5F5F5" stroke-miterlimit="10"/>
<path d="M54.8574 79.584H69.347" stroke="#F5F5F5" stroke-miterlimit="10"/>
<path d="M215.764 83.3047H174.279C170.825 83.3047 168.025 86.1047 168.025 89.5586V160.41C168.025 163.864 170.825 166.664 174.279 166.664H215.764C219.217 166.664 222.018 163.864 222.018 160.41V89.5586C222.018 86.1047 219.217 83.3047 215.764 83.3047Z" fill="#3FBDF1"/>
<path d="M159.058 83.3047H130.172C126.718 83.3047 123.918 86.1047 123.918 89.5586V160.41C123.918 163.864 126.718 166.664 130.172 166.664H159.058C162.512 166.664 165.312 163.864 165.312 160.41V89.5586C165.312 86.1047 162.512 83.3047 159.058 83.3047Z" fill="#3FBDF1"/>
<path d="M126.306 209.054H221.717C223.366 209.053 224.947 208.398 226.112 207.232C227.278 206.067 227.934 204.486 227.936 202.838V84.4039C227.936 83.5872 227.775 82.7784 227.463 82.0237C227.151 81.2691 226.692 80.5835 226.115 80.006C225.538 79.4284 224.852 78.9706 224.097 78.6581C223.343 78.3457 222.534 78.185 221.717 78.1855H156.876L139.929 78.2867H139.88L131.311 78.6202H131.284L129.029 78.7076H128.829L128.663 80.0497L128.335 82.5453C128.338 82.5499 128.34 82.5557 128.34 82.5617C128.34 82.5674 128.338 82.5731 128.335 82.5781L125.667 86.5305L125.12 87.3314L123.614 96.9692V97.0157C123.581 97.002 123.548 96.9829 123.507 96.961C123.475 96.9419 123.443 96.92 123.414 96.8954C122.908 96.5138 122.527 95.9893 122.321 95.3893C121.821 94.1211 121.701 92.44 121.695 91.1062L121.367 98.4288V98.4562L120.911 108.239L120.799 110.866C121.012 110.486 121.318 109.939 121.673 109.286L120.539 116.535L120.304 121.758L119.719 134.957L119.697 135.45V135.638L119.544 138.853V138.926C119.544 138.926 119.107 148.359 119.107 148.373L119.066 149.248L118.56 153.066L117.084 163.751V202.838C117.084 203.951 117.384 205.044 117.953 206.002C118.521 206.959 119.337 207.746 120.315 208.28C122.165 209.283 124.213 209.149 126.246 209.081C126.793 209.064 127.34 209.04 127.886 209.01" fill="#F9A357"/>
<path d="M122.686 207.014C122.648 207.014 122.607 206.978 122.56 206.964C122.041 206.778 121.549 206.52 121.101 206.199C120.313 205.639 119.672 204.899 119.23 204.04C118.788 203.181 118.559 202.228 118.561 201.262V149.099L117.085 149.807L116.992 149.853L116.793 149.359L115.806 146.899L115.533 146.218L113.037 139.989C113.037 139.989 117.777 120.811 120.912 108.238C122.06 103.621 122.995 99.893 123.388 98.3268C123.509 97.8594 123.58 97.586 123.593 97.5396C123.594 97.5286 123.594 97.5177 123.593 97.5068C123.602 97.4136 123.587 97.3201 123.552 97.2334C123.514 97.1326 123.467 97.0347 123.413 96.941C123.407 96.9216 123.397 96.903 123.386 96.8863C123.061 96.3333 122.695 95.8053 122.292 95.3064L121.773 88.8748L121.858 88.8092L122.251 88.4949L124.941 86.3628L125.567 84.7064L126.794 81.4865L127.341 80.0515H128.642H128.975H131.329L140.026 80.0242H140.773L157.274 79.9258H220.412C221.207 79.9258 221.994 80.0824 222.729 80.3869C223.463 80.6914 224.13 81.1378 224.692 81.7003C225.254 82.2628 225.699 82.9306 226.003 83.6656C226.306 84.4003 226.462 85.1878 226.461 85.9829V201.262C226.462 202.058 226.306 202.845 226.003 203.58C225.699 204.315 225.254 204.982 224.692 205.545C224.13 206.108 223.463 206.554 222.729 206.858C221.994 207.163 221.207 207.32 220.412 207.32H126.422" fill="#FFC18A"/>
<path d="M129.002 78.3468L131.238 78.3332H131.284L139.867 78.2867H139.927L156.874 78.1855H221.718C223.367 78.1861 224.948 78.8416 226.114 80.0076C227.28 81.1737 227.935 82.7549 227.936 84.4039V202.838C227.935 204.486 227.279 206.067 226.113 207.232C224.947 208.398 223.366 209.053 221.718 209.054H123.133C121.527 209.054 119.986 208.415 118.85 207.279C117.714 206.143 117.076 204.603 117.076 202.996V190.065" stroke="black" stroke-miterlimit="10"/>
<path d="M215.764 172.785H130.172C126.718 172.785 123.918 175.585 123.918 179.039V196.426C123.918 199.88 126.718 202.68 130.172 202.68H215.764C219.218 202.68 222.018 199.88 222.018 196.426V179.039C222.018 175.585 219.218 172.785 215.764 172.785Z" fill="white"/>
<path d="M187.464 179.444H132.173C131.003 179.444 130.055 180.393 130.055 181.563V194.333C130.055 195.503 131.003 196.451 132.173 196.451H187.464C188.633 196.451 189.582 195.503 189.582 194.333V181.563C189.582 180.393 188.633 179.444 187.464 179.444Z" fill="#F9A357"/>
<path d="M177.545 186.609C178.518 186.609 179.306 185.821 179.306 184.849C179.306 183.877 178.518 183.089 177.545 183.089C176.573 183.089 175.785 183.877 175.785 184.849C175.785 185.821 176.573 186.609 177.545 186.609Z" fill="white"/>
<path d="M172.631 192.808C172.631 191.503 173.149 190.252 174.072 189.329C174.995 188.406 176.246 187.888 177.551 187.888C178.856 187.888 180.107 188.406 181.03 189.329C181.953 190.252 182.471 191.503 182.471 192.808H172.631Z" fill="white"/>
<path d="M204.599 179.447C202.885 179.446 201.208 179.952 199.782 180.904C198.356 181.855 197.244 183.208 196.588 184.791C195.93 186.374 195.758 188.117 196.091 189.798C196.425 191.48 197.25 193.024 198.462 194.237C199.673 195.449 201.218 196.275 202.899 196.61C204.58 196.945 206.323 196.773 207.906 196.117C209.49 195.461 210.844 194.35 211.796 192.925C212.748 191.499 213.256 189.823 213.255 188.109C213.256 186.972 213.032 185.846 212.597 184.795C212.162 183.744 211.525 182.79 210.721 181.985C209.917 181.181 208.963 180.543 207.912 180.107C206.862 179.672 205.736 179.448 204.599 179.447ZM204.599 194.68C204.427 194.688 204.256 194.661 204.096 194.601C203.935 194.541 203.788 194.449 203.664 194.331C203.54 194.212 203.441 194.07 203.374 193.912C203.306 193.755 203.272 193.585 203.272 193.413C203.272 193.242 203.306 193.072 203.374 192.914C203.441 192.757 203.54 192.614 203.664 192.496C203.788 192.377 203.935 192.285 204.096 192.225C204.256 192.165 204.427 192.138 204.599 192.146C204.925 192.161 205.232 192.301 205.457 192.538C205.682 192.774 205.808 193.087 205.808 193.413C205.808 193.739 205.682 194.053 205.457 194.289C205.232 194.525 204.925 194.665 204.599 194.68ZM206.192 184.936C205.919 186.816 205.698 188.79 205.137 190.61C205.011 191.05 204.183 191.05 204.044 190.61C203.647 189.238 203.343 187.841 203.136 186.428C202.961 185.403 202.363 183.736 202.937 182.741C203.443 181.847 204.869 181.741 205.689 182.194C206.712 182.774 206.302 184.001 206.192 184.936Z" fill="#F9A357"/>
<path d="M213.801 143.564C213.381 147.186 211.882 150.598 209.498 153.357C207.114 156.115 203.956 158.094 200.434 159.035C196.911 159.975 193.187 159.836 189.745 158.633C186.303 157.43 183.303 155.22 181.133 152.29C178.963 149.36 177.724 145.846 177.577 142.203C177.43 138.56 178.382 134.957 180.31 131.862C182.237 128.767 185.05 126.323 188.384 124.847C191.718 123.371 195.418 122.932 199.005 123.586C199.163 123.617 199.313 123.679 199.445 123.77C199.578 123.86 199.691 123.977 199.777 124.112C199.862 124.248 199.919 124.4 199.944 124.559C199.969 124.718 199.961 124.88 199.921 125.035L199.563 126.432L196.354 138.961C196.303 139.161 196.305 139.371 196.36 139.57C196.416 139.768 196.523 139.949 196.67 140.093C196.817 140.237 197 140.34 197.2 140.392C197.4 140.443 197.609 140.441 197.808 140.385L210.264 136.903L211.967 136.428C212.118 136.385 212.277 136.373 212.434 136.393C212.59 136.413 212.741 136.464 212.877 136.543C213.013 136.623 213.132 136.729 213.226 136.855C213.321 136.981 213.389 137.125 213.426 137.278C213.917 139.336 214.044 141.463 213.801 143.564Z" fill="white"/>
<path d="M214.228 130.652C214.287 130.805 214.313 130.968 214.305 131.132C214.297 131.295 214.254 131.455 214.18 131.601C214.107 131.747 214.003 131.876 213.876 131.98C213.749 132.083 213.602 132.159 213.444 132.202L212.271 132.53L202.128 135.364C201.929 135.42 201.719 135.422 201.519 135.371C201.32 135.319 201.137 135.216 200.99 135.072C200.842 134.928 200.736 134.747 200.68 134.549C200.625 134.35 200.622 134.14 200.673 133.94L203.295 123.739L203.546 122.761C203.586 122.605 203.657 122.459 203.755 122.333C203.853 122.206 203.977 122.101 204.118 122.024C204.259 121.947 204.414 121.9 204.574 121.885C204.734 121.871 204.895 121.89 205.047 121.941C207.111 122.653 208.998 123.799 210.581 125.302C212.165 126.804 213.408 128.629 214.228 130.652Z" fill="white"/>
<path d="M195.489 99.6055C198.248 99.6055 200.485 97.3685 200.485 94.6089C200.485 91.8496 198.248 89.6123 195.489 89.6123C192.729 89.6123 190.492 91.8496 190.492 94.6089C190.492 97.3685 192.729 99.6055 195.489 99.6055Z" fill="white"/>
<path d="M213.92 105.652H177.547V106.653H213.92V105.652Z" fill="white"/>
<path d="M213.92 109.353H177.547V110.353H213.92V109.353Z" fill="white"/>
<path d="M213.92 112.727H177.547V113.727H213.92V112.727Z" fill="white"/>
<path d="M158.942 126.552H130.449V127.552H158.942V126.552Z" fill="white"/>
<path d="M158.942 130.589H130.449V131.589H158.942V130.589Z" fill="white"/>
<path d="M158.942 134.623H130.449V135.623H158.942V134.623Z" fill="white"/>
<path d="M158.942 138.661H130.449V139.662H158.942V138.661Z" fill="white"/>
<path d="M158.942 142.698H130.449V143.699H158.942V142.698Z" fill="white"/>
<path d="M126.541 98.1254C126.541 98.1254 135.2 111.762 145.068 116.048C154.935 120.334 158.018 122.228 161.793 120.695C165.568 119.161 172.814 117.013 177.92 101.835C183.026 86.6562 185.459 78.6666 185.639 74.9903C185.819 71.3139 175.668 74.3342 175.668 74.3342C175.668 74.3342 170.201 90.4474 158.223 97.6389L141.165 79.6206L126.541 98.1254Z" fill="white"/>
<path d="M116.419 119.082L123.389 120.974C123.389 120.974 115.296 132.134 122.493 143.819C129.69 155.504 144.51 179.079 144.51 179.079L172.877 224.18L146.347 220.482L126.538 198.784L116.425 188.701L103.75 149.135L116.419 119.082Z" fill="white"/>
<path d="M2.61503 176.756C3.24174 177.095 3.96717 177.204 4.66593 177.065C5.36469 176.925 5.99289 176.546 6.44171 175.993L16.7574 163.346L25.0805 152.899L18.2662 149.072C17.5605 148.673 16.7252 148.571 15.9442 148.788C15.1631 149.005 14.4999 149.523 14.1006 150.228L1.40142 172.533C1.19912 172.889 1.06997 173.281 1.02156 173.687C0.973154 174.094 1.00645 174.506 1.1195 174.899C1.23255 175.293 1.42309 175.66 1.67992 175.979C1.93675 176.297 2.25466 176.561 2.61503 176.756Z" fill="#2E2E2E"/>
<path d="M159.637 236.411L168.222 244.857C168.963 245.588 169.961 245.998 171.002 246H192.473C193.139 246.003 193.791 245.811 194.35 245.45C194.909 245.088 195.351 244.571 195.621 243.962C195.892 243.354 195.979 242.679 195.873 242.022C195.767 241.365 195.471 240.752 195.023 240.26C194.458 239.628 193.679 239.231 192.836 239.144L180.927 237.923L159.637 236.411Z" fill="#2E2E2E"/>
<path d="M81.2328 130.772C81.2328 130.772 97.8379 135.391 108.908 136.769C119.978 138.147 119.202 133.555 119.202 133.555L120.555 127.754C124.108 121.965 126.172 109.649 126.172 109.649L127.599 100.013L129.682 103.679L136.414 110.46L136.496 110.526C136.291 107.287 136.447 102.736 137.201 96.5366C138.94 82.1865 144.696 83.8511 144.696 83.8511L143.851 82.9245C139.874 76.307 127.178 69.3123 123.122 67.6395C119.065 65.9667 120.801 68.3365 121.318 70.0996C121.834 71.8626 120.358 76.8236 114.446 74.298C108.534 71.7724 108.236 66.2783 108.236 66.2783H105.489C88.6375 68.3037 80.0684 77.291 80.0684 77.291C97.9692 81.5141 93.8609 96.6979 93.8609 96.6979L92.2373 98.1821C85.8822 103.693 85.4394 109.006 85.9888 111.22C86.5382 113.434 90.4579 116.414 97.5345 118.141C104.611 119.869 105.899 119.871 107.498 116.813C109.097 113.754 110.961 113.377 113.511 112.918C116.061 112.458 119.186 114.271 118.472 115.698C117.759 117.124 117.242 115.878 119.019 119.732C120.795 123.586 119.97 125.546 115.192 129.096C110.414 132.647 89.1705 130.654 89.1705 130.654C79.0105 127.845 81.2328 130.772 81.2328 130.772Z" fill="#2E2E2E"/>
<path d="M120.071 66.3686V66.9508V67.0984C124.821 68.2852 129.293 70.3853 133.24 73.2813C133.88 73.7487 134.503 74.2243 135.118 74.7245C135.135 72.7154 134.962 70.6982 134.315 68.7958C133.79 67.1632 132.801 65.7189 131.469 64.6384C130.297 63.7035 128.911 63.1049 127.517 62.5637C126.123 62.0225 124.753 61.5469 123.474 60.8171C122.396 60.2275 121.454 59.4171 120.711 58.4391C120.45 58.0854 120.287 57.6691 120.239 57.2323C120.191 56.7955 120.26 56.3538 120.437 55.9517C120.312 55.943 120.188 55.9184 120.068 55.8779L120.071 66.3686Z" fill="#3FBDF1"/>
<path d="M120.071 66.3686V66.9508V67.0984C124.821 68.2852 129.293 70.3853 133.24 73.2813C133.88 73.7487 134.503 74.2243 135.118 74.7245C135.135 72.7154 134.962 70.6982 134.315 68.7958C133.79 67.1632 132.801 65.7189 131.469 64.6384C130.297 63.7035 128.911 63.1049 127.517 62.5637C126.123 62.0225 124.753 61.5469 123.474 60.8171C122.396 60.2275 121.454 59.4171 120.711 58.4391C120.45 58.0854 120.287 57.6691 120.239 57.2323C120.191 56.7955 120.26 56.3538 120.437 55.9517C120.312 55.943 120.188 55.9184 120.068 55.8779L120.071 66.3686Z" fill="#F9A357"/>
<path d="M54.4499 111.748C56.2345 113.025 58.2184 113.998 60.3212 114.626C61.2256 114.905 62.1446 115.135 63.0737 115.315C59.4028 106.664 62.1498 95.2825 73.7338 83.1463C75.7171 81.0649 77.8289 79.1094 80.056 77.2915C83.6559 74.364 86.8539 72.1828 90.626 70.428C92.3146 69.6487 94.049 68.9725 95.8194 68.4026C98.9586 67.3576 102.199 66.6456 105.487 66.2787C106.233 66.1885 106.971 66.1229 107.718 66.0819C107.536 64.8003 107.572 63.4973 107.824 62.2279C108.513 58.7429 109.713 56.7393 111.894 53.9923C113.261 52.2621 115.396 48.1292 112.55 46.7024C110.754 45.8086 110.59 43.969 111.435 42.8757C112.148 41.9245 113.592 41.4899 115.371 42.6023C116.601 43.3896 118.061 43.4388 119.471 43.0533C120.567 42.4151 121.516 41.5549 122.259 40.5277C124.326 37.5675 124.399 33.082 121.166 30.909C119.403 29.72 117.156 29.433 115.049 29.6626C114.105 29.7662 113.175 29.9696 112.274 30.2694C112.27 30.2675 112.266 30.2667 112.262 30.2667C112.258 30.2667 112.253 30.2675 112.25 30.2694C108.423 32.3276 105.703 36.1325 104.391 40.4211C103.62 42.9549 102.751 45.4642 101.734 47.9242C100.898 49.9414 100.316 52.3932 98.4543 53.7709C97.6764 54.3462 96.7932 54.7642 95.8549 55.0009C92.337 57.2313 87.458 55.9439 83.6122 55.4683C80.5374 55.0479 77.4069 55.3625 74.4772 56.3867C71.1972 58.0458 68.3764 60.6945 66.0886 64.1385C62.3083 69.8376 66.31 78.0541 59.9877 82.5477C58.0743 83.9007 55.8876 84.7207 53.7966 85.7704C50.8118 87.2874 48.401 89.444 47.5099 92.765C45.7496 99.4645 48.882 107.706 54.4499 111.748Z" fill="#F9A357"/>
<path d="M209.038 245.999H59.457" stroke="black" stroke-miterlimit="10"/>
<path d="M125.555 37.8295C125.939 38.626 126.268 39.4479 126.539 40.2895C126.932 41.6562 126.506 42.5035 127.104 43.8073C127.31 44.2584 127.605 45.021 127.925 45.7918C128.015 45.6114 128.097 45.4638 128.146 45.349C130.491 40.1255 127.408 37.6081 125.924 36.7471C125.829 37.1172 125.706 37.4791 125.555 37.8295Z" fill="#3FBDF1"/>
<path d="M125.555 37.8295C125.939 38.626 126.268 39.4479 126.539 40.2895C126.932 41.6562 126.506 42.5035 127.104 43.8073C127.31 44.2584 127.605 45.021 127.925 45.7918C128.015 45.6114 128.097 45.4638 128.146 45.349C130.491 40.1255 127.408 37.6081 125.924 36.7471C125.829 37.1172 125.706 37.4791 125.555 37.8295Z" fill="#F9A357"/>
<path d="M73.5903 125.95C72.158 137.244 73.317 156.837 96.4467 171.827C100.61 174.524 104.357 178.335 108.028 181.628C118.04 190.676 127.565 200.249 136.562 210.307C142.069 216.413 147.692 222.831 153.276 229.014C156.139 232.174 159.033 235.304 161.957 238.406C164.111 240.677 167.528 245.996 170.991 245.996H192.273C194.186 245.996 195.925 244.43 195.897 242.509C195.882 241.678 195.567 240.881 195.012 240.265C194.447 239.633 193.667 239.235 192.825 239.149L180.916 237.928L123.376 146.42C120.407 141.697 117.775 133.923 120.071 128.831C128.818 109.462 128.066 90.6895 128.066 90.6895" stroke="black" stroke-miterlimit="10"/>
<path d="M103.381 177.714C100.872 186.529 96.8207 195.481 93.4751 201.117C92.2628 203.175 90.6646 204.979 88.7682 206.431C81.913 211.682 72.2232 211.121 65.6495 205.526L32.9557 177.698L16.7605 163.345L6.4448 175.992C5.95717 176.586 5.26453 176.975 4.50397 177.082C3.74344 177.19 2.97015 177.009 2.33677 176.574C1.7034 176.14 1.25597 175.483 1.08287 174.735C0.909766 173.987 1.02356 173.2 1.40174 172.532L14.1037 150.233C14.503 149.528 15.1661 149.01 15.9473 148.793C16.7283 148.576 17.5636 148.678 18.2693 149.077L25.0836 152.904L64.127 174.77C64.7764 175.134 65.5029 175.338 66.2467 175.366C66.9907 175.394 67.7304 175.245 68.4052 174.931C69.0801 174.617 69.6711 174.147 70.1289 173.561C70.587 172.974 70.8992 172.287 71.0396 171.556L75.6645 147.306" stroke="black" stroke-miterlimit="10"/>
<path d="M120.07 54.2543V66.2811V66.8633V67.0109C121.308 68.8149 121.931 71.3843 120.75 73.2976C119.168 75.8642 115.675 75.4378 113.461 74.0028C112.809 73.5813 112.187 73.1156 111.599 72.6088C109.628 70.8966 108.353 68.5222 108.013 65.9339C107.831 64.6523 107.867 63.3493 108.12 62.0799C108.814 58.5976 110.011 56.5968 112.195 53.8415C113.562 52.1195 115.694 47.9812 112.846 46.5544C109.508 44.8898 111.821 40.0189 115.666 42.4543C118.651 44.3486 122.94 41.9869 124.711 39.4476C126.777 36.4874 126.851 32.002 123.618 29.8289C121.855 28.6399 119.608 28.3529 117.5 28.5825C111.08 29.2877 106.51 34.3062 104.681 40.2759C103.91 42.8097 103.041 45.3189 102.024 47.7789C101.188 49.7962 100.606 52.248 98.7441 53.6256C95.1907 56.2742 90.0684 54.8884 86.0586 54.3964C77.7109 53.3714 70.9786 57.0696 66.3783 63.9932C62.5981 69.6923 66.5997 77.9088 60.2775 82.4025C58.3641 83.7555 56.1774 84.5755 54.0864 85.6251C51.1016 87.1421 48.6908 89.2987 47.8133 92.6198C46.0421 99.311 49.18 107.552 54.7424 111.595C57.2926 113.448 60.2775 114.555 63.3771 115.162" stroke="black" stroke-miterlimit="10"/>
<path d="M136.548 76.2824C136.565 76.1293 136.57 75.9817 136.578 75.8368C136.718 73.1937 136.701 70.4549 135.84 67.9101C135.312 66.2794 134.323 64.8362 132.992 63.7554C131.817 62.8233 130.431 62.2192 129.042 61.678C127.654 61.1368 126.276 60.6667 125 59.9341C123.919 59.347 122.977 58.5352 122.236 57.5534C121.977 57.2008 121.815 56.7859 121.767 56.3504C121.719 55.9153 121.787 55.4749 121.963 55.0742" stroke="black" stroke-miterlimit="10"/>
<path d="M117.482 51.5424C118.45 52.9255 119.762 54.4179 121.416 54.9564C123.556 55.6534 124.996 53.8357 125.765 52.0672C126.224 51.0149 126.541 49.8942 126.913 48.8063C127.033 48.4483 127.107 48.2761 127.517 48.2597C127.927 48.2433 128.358 48.3253 128.779 48.3253C128.809 48.3244 128.839 48.3157 128.864 48.3001C128.89 48.2845 128.911 48.2624 128.925 48.2359C128.939 48.2094 128.946 48.1798 128.945 48.1498C128.944 48.12 128.935 48.0907 128.919 48.0656C128.353 47.2046 127.508 44.8566 127.082 43.9163C126.489 42.6125 126.918 41.7679 126.519 40.3985C126.247 39.5577 125.921 38.7358 125.54 37.9385" stroke="black" stroke-miterlimit="10"/>
<path d="M126.172 35.4102C126.172 35.4102 132.008 37.6488 128.993 44.3756C128.807 44.7829 128.35 45.6329 128.134 46.0156" stroke="black" stroke-miterlimit="10"/>
<path d="M189.119 16.2305C189.119 16.2305 189.152 16.2469 189.218 16.2715L189.119 16.2305Z" fill="#3FBDF1"/>
<path d="M125.848 51.8729C125.381 51.9371 124.906 51.8286 124.513 51.5681C124.12 51.3074 123.836 50.9124 123.713 50.457" stroke="black" stroke-miterlimit="10"/>
<path d="M126.835 42.8643C125.627 41.8803 124.301 43.1376 123.492 44.0506" stroke="black" stroke-miterlimit="10"/>
<path d="M108.021 65.9355C103.969 66.1922 99.9674 66.9701 96.1147 68.2507C89.828 70.3117 85.4983 72.9712 80.3623 77.1396C78.1355 78.9611 76.0239 80.9193 74.0401 83.0027C62.4451 95.1388 59.7036 106.526 63.38 115.174C66.3675 122.221 73.2556 126.592 80.3131 128.819C84.9298 130.273 89.7405 130.899 94.5676 131.039C100.321 131.203 106.124 130.984 111.788 129.891C114.174 129.432 116.924 129.054 118.348 126.838C119.772 124.621 119.892 121.631 118.834 119.255C117.842 117.044 115.164 114.666 112.742 116.402C112.473 116.595 112.252 116.848 112.096 117.139C111.939 117.431 111.85 117.755 111.837 118.085" stroke="black" stroke-miterlimit="10"/>
<path d="M103.646 80.5596C103.947 89.6234 96.266 94.6774 96.266 94.6774C93.7185 96.7411 91.2421 98.9578 89.1592 101.497C87.8281 103.118 86.5926 104.933 85.9803 106.964C85.5225 108.349 85.5304 109.845 86.0022 111.225C86.524 112.501 87.3864 113.609 88.495 114.429C90.5669 116.05 93.0871 116.889 95.5854 117.616C98.3382 118.404 101.142 119.001 103.977 119.403C105.617 119.638 106.308 119.13 107.057 117.711C107.735 116.427 108.29 114.94 109.545 114.101C111.283 112.934 113.617 112.663 115.629 113.144C118.731 113.882 119.524 116.342 116.996 116.839" stroke="black" stroke-miterlimit="10"/>
<path d="M101.751 142.052L54.6142 130.662L43.3965 177.086L89.2268 188.478L90.6973 187.803L101.751 142.052Z" fill="white"/>
<path d="M80.0023 135.525C82.2382 119.874 87.0845 116.004 90.2388 115.23L90.031 115.115C80.508 111.409 73.9042 129.747 72.502 134.036L80.0023 135.525Z" fill="#D7E8F0"/>
<path d="M79.8706 136.765C82.1065 121.114 87.084 115.992 90.2383 115.229L90.0305 115.114C80.5075 111.408 73.6303 130.629 72.2227 134.915L79.8706 136.765Z" fill="#D7E8F0"/>
<path d="M90.0305 115.115C79.2611 110.927 72.2227 134.915 72.2227 134.915L79.8761 136.766C84.3233 112.712 93.8654 117.086 93.8654 117.086C93.5292 116.984 90.0305 115.115 90.0305 115.115Z" stroke="black" stroke-miterlimit="10"/>
<path d="M54.0914 132.876L43.4004 177.102L80.5881 186.092L91.2791 141.866L54.0914 132.876Z" fill="#3FBDF1"/>
<path d="M54.658 130.534L43.4004 177.103L82.5566 186.569L93.8143 140L54.658 130.534Z" fill="white"/>
<path d="M54.8415 134.075L45.1457 174.183C44.871 175.32 45.5699 176.465 46.707 176.739L79.7768 184.734C80.9139 185.009 82.0586 184.31 82.3336 183.172L92.0291 143.065C92.3041 141.928 91.6049 140.783 90.4678 140.508L57.3982 132.514C56.2612 132.239 55.1164 132.938 54.8415 134.075Z" fill="#F9A357"/>
<path d="M54.6228 130.679L43.4004 177.102L82.5569 186.567L93.779 140.144L54.6228 130.679Z" stroke="black" stroke-miterlimit="10"/>
<path d="M93.9411 140.181L82.7188 186.604L90.5353 188.493L101.757 142.07L93.9411 140.181Z" fill="white"/>
<path d="M93.9411 140.181L82.7188 186.604L90.5353 188.493L101.757 142.07L93.9411 140.181Z" stroke="black" stroke-miterlimit="10"/>
<path d="M90.5342 188.478L88.0168 182.003L82.7168 186.59" stroke="black" stroke-miterlimit="10"/>
<path d="M97.8448 141.11L88.0156 182.004" stroke="black" stroke-miterlimit="10"/>
<path d="M184.073 65.8027C183.926 65.8273 183.8 65.8519 183.639 65.8847C182.16 66.1428 180.758 66.7315 179.539 67.6068C178.202 68.64 176.988 70.4358 176.398 71.9801C175.505 74.3254 174.524 76.6323 173.454 78.901C171.839 82.3984 169.918 85.7459 167.714 88.9051C165.426 92.1196 162.679 95.3777 159.219 97.3785C158.784 97.6409 158.327 97.8634 157.852 98.0428C157.27 98.2888 149.078 88.8641 148.176 87.8145C144.56 83.6079 140.82 79.4422 136.581 75.8424C135.507 74.924 134.394 74.0384 133.252 73.2102C129.302 70.3117 124.826 68.2089 120.074 67.0191" stroke="black" stroke-miterlimit="10"/>
<path d="M198.81 65.458C198.826 65.4621 198.843 65.4621 198.859 65.458C202.648 65.9008 201.163 69.9845 198.498 69.8533C195.555 69.7057 192.619 69.8533 189.683 69.9025C188.874 69.8759 188.068 70.0241 187.322 70.3371C185.846 71.0423 185.706 72.6167 185.485 74.0435C185.19 75.9131 184.853 77.7827 184.457 79.636C183.686 83.3096 182.735 86.934 181.644 90.5257C180.939 92.8545 180.16 95.1724 179.34 97.4657C176.946 104.223 173.928 111.389 168.852 116.599C166.048 119.486 162.374 121.618 158.233 121.306C152.403 120.871 146.794 117.944 141.849 114.615C141.829 114.601 141.809 114.584 141.792 114.566C139.946 113.323 138.177 111.971 136.495 110.515C136.495 110.515 129.68 104.447 127.598 100.002" stroke="black" stroke-miterlimit="10"/>
<path d="M209.582 61.7845V62.1672C209.582 64.8076 207.456 65.2613 205.619 65.3051L170.066 66.1251C168.508 66.1661 167.199 64.8021 167.166 63.0992V63.0282C167.166 61.3581 168.391 59.9695 169.929 59.9313C169.929 59.9313 189.817 59.3709 205.22 58.9473C205.512 59.8793 206.229 60.601 207.117 61.164C207.859 61.6104 208.717 61.8263 209.582 61.7845Z" stroke="black" stroke-miterlimit="10"/>
<path d="M228.469 24.1652C228.469 24.6003 228.366 25.0292 228.169 25.417L212.28 58.0124C212.093 58.389 211.827 58.7209 211.5 58.9849C211.173 59.2492 210.793 59.4395 210.385 59.5431C209.729 59.7093 209.035 59.6374 208.426 59.3408C207.939 59.1014 207.529 58.7304 207.243 58.2701C206.956 57.8096 206.804 57.2782 206.805 56.7359C206.807 56.3021 206.906 55.8746 207.094 55.484L222.992 22.8859C223.281 22.3037 223.758 21.8363 224.345 21.5592C224.933 21.2823 225.598 21.212 226.23 21.3596C226.863 21.5075 227.428 21.8648 227.832 22.3734C228.236 22.8821 228.457 23.5124 228.458 24.1624L228.469 24.1652Z" stroke="black" stroke-miterlimit="10"/>
<path d="M185.234 17.4608C190.056 17.4608 193.965 13.552 193.965 8.73036C193.965 3.90871 190.056 0 185.234 0C180.413 0 176.504 3.90871 176.504 8.73036C176.504 13.552 180.413 17.4608 185.234 17.4608Z" fill="#F9A357"/>
<path d="M182.459 11.7344C182.169 11.6261 181.898 11.474 181.655 11.2834C181.227 10.9603 180.932 10.4911 180.827 9.96489C180.723 9.43871 180.815 8.89237 181.087 8.4298C181.264 8.1294 181.508 7.8743 181.801 7.68458C182.094 7.49483 182.427 7.37565 182.773 7.33646C182.581 6.88509 182.541 6.38347 182.659 5.90743C182.778 5.43138 183.048 5.00684 183.429 4.69799C183.81 4.38915 184.281 4.21285 184.772 4.19571C185.262 4.1786 185.744 4.32158 186.146 4.60309C186.991 5.19077 187.576 6.22671 187.934 7.17245C188.118 7.66908 188.254 8.18268 188.338 8.70587C188.379 8.97921 188.658 10.4826 188.439 10.6356C186.996 11.636 184.309 12.4396 182.459 11.7344Z" fill="white"/>
<g opacity="0.72">
<path opacity="0.72" d="M177.868 35.672C180.522 35.672 182.673 33.5209 182.673 30.8668C182.673 28.213 180.522 26.0615 177.868 26.0615C175.214 26.0615 173.062 28.213 173.062 30.8668C173.062 33.5209 175.214 35.672 177.868 35.672Z" fill="#FFC18A"/>
<path opacity="0.72" d="M178.819 32.9055C178.704 33.0312 178.569 33.1381 178.42 33.2225C178.166 33.3712 177.865 33.4221 177.576 33.3652C177.287 33.3084 177.028 33.1479 176.849 32.9137C176.731 32.7603 176.651 32.5818 176.614 32.3919C176.578 32.2022 176.586 32.0065 176.638 31.8203C176.369 31.822 176.107 31.7364 175.891 31.5765C175.674 31.4163 175.516 31.1906 175.439 30.9328C175.362 30.6748 175.37 30.399 175.464 30.1467C175.557 29.8941 175.729 29.6787 175.955 29.5325C176.468 29.2488 177.051 29.1198 177.636 29.1608C177.928 29.169 178.218 29.2075 178.502 29.2756C178.647 29.3084 179.473 29.4833 179.505 29.6254C179.716 30.5739 179.566 32.1128 178.819 32.9055Z" fill="white"/>
</g>
<path d="M204.919 20.3799L200.203 22.8938C198.493 23.8053 197.845 25.9314 198.757 27.6416L201.271 32.3572C202.182 34.0678 204.308 34.7153 206.019 33.8034L210.734 31.2898C212.445 30.378 213.092 28.2522 212.18 26.5417L209.667 21.8261C208.755 20.1158 206.629 19.4683 204.919 20.3799Z" fill="#F9A357"/>
<path d="M206.808 32.4637L210.222 30.6433C210.934 30.2612 211.466 29.6131 211.701 28.8404C211.937 28.0674 211.857 27.2329 211.479 26.5186L209.293 22.4186C208.911 21.7063 208.263 21.1741 207.49 20.9385C206.717 20.7029 205.882 20.7829 205.168 21.1612L204.938 21.2842C204.086 22.4678 202.951 24.4932 204.665 25.1301C207.125 26.0512 206.406 27.4316 205.485 29.2001C204.703 30.6843 204.504 32.42 206.808 32.4637Z" fill="white"/>
<path d="M201.491 27.4992C202.204 27.4992 202.781 26.9214 202.781 26.2091C202.781 25.4965 202.204 24.9189 201.491 24.9189C200.779 24.9189 200.201 25.4965 200.201 26.2091C200.201 26.9214 200.779 27.4992 201.491 27.4992Z" fill="white"/>
<path d="M185.599 49.0329C186.077 49.2653 186.586 49.4274 187.111 49.514C188.074 49.6616 189.058 49.5569 189.969 49.2101C190.879 48.8632 191.684 48.2862 192.304 47.5351C192.783 46.9392 193.141 46.193 193.644 45.5916C193.988 45.1529 194.448 44.8197 194.972 44.6295C195.152 44.5912 195.32 44.5095 195.461 44.3917C195.806 44.0364 195.221 43.7357 195.103 43.4487C194.927 42.9856 194.927 42.474 195.103 42.0109C195.552 40.7938 195.565 39.4585 195.139 38.2329C194.713 37.0072 193.876 35.9672 192.769 35.2901C191.663 34.6128 190.355 34.3406 189.07 34.5193C187.785 34.6984 186.602 35.3175 185.722 36.2709C184.853 37.2084 184.331 38.4056 183.79 39.5509C183.309 40.5704 182.798 41.5845 182.533 42.6806C181.918 45.2773 183.306 47.915 185.599 49.0329Z" fill="#F9A357"/>
<path d="M190.482 39.8087C191.154 39.8087 191.698 39.2642 191.698 38.5923C191.698 37.9205 191.154 37.376 190.482 37.376C189.81 37.376 189.266 37.9205 189.266 38.5923C189.266 39.2642 189.81 39.8087 190.482 39.8087Z" fill="white"/>
<path d="M188.888 43.1651C189.56 43.1651 190.105 42.6206 190.105 41.9488C190.105 41.2772 189.56 40.7324 188.888 40.7324C188.216 40.7324 187.672 41.2772 187.672 41.9488C187.672 42.6206 188.216 43.1651 188.888 43.1651Z" fill="white"/>
<path d="M187.394 46.3136C188.066 46.3136 188.61 45.7688 188.61 45.0972C188.61 44.4253 188.066 43.8809 187.394 43.8809C186.722 43.8809 186.178 44.4253 186.178 45.0972C186.178 45.7688 186.722 46.3136 187.394 46.3136Z" fill="white"/>
<g opacity="0.54">
<path opacity="0.54" d="M158.195 53.9887C158.564 53.9398 158.93 53.8641 159.288 53.7618L163.404 52.6029C164.664 52.2476 165.99 51.854 166.884 50.8945C168.54 49.1151 168.005 46.2888 167.362 43.9436C166.839 42.0248 166.315 40.106 165.791 38.1871C165.43 36.8642 165.058 35.5194 164.339 34.3604C163.62 33.2015 162.483 32.2065 161.127 31.9933C160.13 31.8375 159.118 32.1054 158.143 32.3705L154.193 33.4639C152.897 33.8165 151.531 34.2128 150.623 35.205C149.01 36.9681 149.53 39.7342 150.148 42.0385L151.725 47.9288C152.692 51.4686 154.504 54.4534 158.195 53.9887Z" fill="#FFC18A"/>
<path opacity="0.54" d="M157.923 45.9556C158.166 46.1937 158.469 46.3631 158.799 46.4473C159.129 46.5315 159.475 46.5271 159.804 46.435C160.132 46.3426 160.43 46.1658 160.667 45.9217C160.905 45.6779 161.075 45.3756 161.159 45.0454L161.618 43.2468L162.075 41.4455C162.159 41.1154 162.154 40.7688 162.061 40.441C161.969 40.113 161.792 39.8154 161.548 39.5778C161.304 39.34 161.001 39.1708 160.671 39.0869C160.341 39.0033 159.994 39.0077 159.666 39.1003L157.882 39.6033L156.094 40.1062C155.767 40.1994 155.47 40.3774 155.233 40.6217C154.996 40.8661 154.827 41.1687 154.744 41.4988C154.661 41.8288 154.666 42.1751 154.759 42.5025C154.852 42.83 155.03 43.1271 155.274 43.3644L156.605 44.66L157.923 45.9556Z" fill="white"/>
</g>
</svg>
